<svg width="104" height="105" viewBox="0 0 104 105" fill="none" xmlns="http://www.w3.org/2000/svg">
<rect opacity="0.69" width="104" height="105" rx="50" fill="black"/>
<path d="M28 50.1111C28 39.2171 28 33.7687 31.1904 30.3858C34.3809 27.0029 39.5123 27 49.7778 27H55.2222C65.4877 27 70.6218 27 73.8096 30.3858C76.9973 33.7716 77 39.2171 77 50.1111V55.8889C77 66.7829 77 72.2313 73.8096 75.6142C70.6191 78.9971 65.4877 79 55.2222 79H49.7778C39.5123 79 34.3782 79 31.1904 75.6142C28.0027 72.2284 28 66.7829 28 55.8889V50.1111Z" stroke="white" stroke-width="5"/>
<path d="M46.7501 46C47.4405 46 48.0001 46.5596 48.0001 47.25C48.0001 47.9404 47.4405 48.5 46.7501 48.5C46.0598 48.5 45.5001 47.9404 45.5001 47.25C45.5001 46.5596 46.0598 46 46.7501 46Z" stroke="white" stroke-width="5"/>
<path d="M52.5 62C57.1944 62 61 57.9706 61 53C61 48.0294 57.1944 44 52.5 44C47.8056 44 44 48.0294 44 53C44 57.9706 47.8056 62 52.5 62Z" stroke="white" stroke-width="5"/>
</svg>
