<svg width="104" height="105" viewBox="0 0 104 105" fill="none" xmlns="http://www.w3.org/2000/svg">
<rect opacity="0.69" width="104" height="105" rx="50" fill="black"/>
<path d="M46.4 62.5714L60.932 52.5L46.4 42.4286V62.5714ZM78.768 36.285C79.132 37.8629 79.384 39.9779 79.552 42.6636C79.748 45.3493 79.832 47.6657 79.832 49.68L80 52.5C80 59.8521 79.552 65.2571 78.768 68.715C78.068 71.7364 76.444 73.6836 73.924 74.5229C72.608 74.9593 70.2 75.2614 66.504 75.4629C62.864 75.6979 59.532 75.7986 56.452 75.7986L52 76C40.268 76 32.96 75.4629 30.076 74.5229C27.556 73.6836 25.932 71.7364 25.232 68.715C24.868 67.1371 24.616 65.0221 24.448 62.3364C24.252 59.6507 24.168 57.3343 24.168 55.32L24 52.5C24 45.1479 24.448 39.7429 25.232 36.285C25.932 33.2636 27.556 31.3164 30.076 30.4771C31.392 30.0407 33.8 29.7386 37.496 29.5371C41.136 29.3021 44.468 29.2014 47.548 29.2014L52 29C63.732 29 71.04 29.5371 73.924 30.4771C76.444 31.3164 78.068 33.2636 78.768 36.285Z" fill="white"/>
</svg>
