<svg width="40" height="40" viewBox="0 0 40 40" fill="none" xmlns="http://www.w3.org/2000/svg">
<path fill-rule="evenodd" clip-rule="evenodd" d="M24.258 4.1943C23.9291 3.5494 23.8425 2.78462 24.0172 2.0682C24.1918 1.35179 24.6135 0.742413 25.1894 0.374143C25.7652 0.00587217 26.4482 -0.0911304 27.0879 0.104475C27.7277 0.30008 28.2718 0.772269 28.6007 1.41717L34.0005 12.0042H35.4233C36.1062 11.9914 36.7804 12.1578 37.3947 12.4873C38.0147 12.82 38.5575 13.3096 38.9832 13.9111C39.4089 14.5126 39.7089 15.21 39.8689 15.9555C40.0289 16.701 40.0404 17.4721 39.9146 18.2207L36.9204 35.8146V35.821C36.7176 36.992 36.169 38.0606 35.3491 38.8285C34.5336 39.6002 33.4967 40.0161 32.4291 39.9995H7.57274C6.50557 40.0169 5.46867 39.6022 4.65283 38.8317C3.83605 38.0598 3.28122 36.9967 3.08145 35.821V35.8146L0.0872497 18.2239C-0.0428639 17.4725 -0.0272937 16.6954 0.132906 15.9513C0.293106 15.2072 0.594196 14.5103 1.01579 13.9079C1.44435 13.3064 1.98434 12.82 2.60432 12.4841C3.21859 12.1546 3.89285 11.9882 4.57569 12.001H6.00136L11.4041 1.41077C11.7333 0.76587 12.2778 0.293849 12.9178 0.0985442C13.5578 -0.0967608 14.2409 0.000648652 14.8168 0.369344C15.3927 0.738038 15.8142 1.34782 15.9886 2.06454C16.163 2.78125 16.076 3.5462 15.7468 4.1911L11.7612 11.9978H28.2464L24.258 4.1943ZM35.4776 16.0003C35.6033 16.0003 35.7271 16.0323 35.849 16.0963C35.9748 16.1603 36.0871 16.2605 36.1862 16.397C36.2852 16.5357 36.3547 16.6989 36.3947 16.8866C36.4347 17.0785 36.4386 17.2705 36.4062 17.4625V17.4689L33.4148 35.0595C33.366 35.3332 33.2386 35.5815 33.052 35.7666C32.8942 35.9193 32.692 36.0024 32.4834 36.0001H7.51846C7.30988 36.0024 7.10773 35.9193 6.9499 35.7666C6.76387 35.5823 6.6365 35.3352 6.58706 35.0627L3.59572 17.4689V17.4625C3.56365 17.2775 3.56666 17.0871 3.60456 16.9036C3.64246 16.72 3.7144 16.5474 3.81571 16.397C3.90258 16.2667 4.01761 16.1632 4.14999 16.0963C4.26666 16.033 4.39463 16.0002 4.52426 16.0003L4.56426 16.0035L35.4776 16.0003Z" fill="black"/>
</svg>
