<svg width="28" height="28" viewBox="0 0 28 28" fill="none" xmlns="http://www.w3.org/2000/svg">
<path d="M14.14 23.7275L14 23.8801L13.846 23.7275C7.196 17.151 2.8 12.8022 2.8 8.39237C2.8 5.3406 4.9 3.05177 7.7 3.05177C9.856 3.05177 11.956 4.57766 12.698 6.65286H15.302C16.044 4.57766 18.144 3.05177 20.3 3.05177C23.1 3.05177 25.2 5.3406 25.2 8.39237C25.2 12.8022 20.804 17.151 14.14 23.7275ZM20.3 0C17.864 0 15.526 1.23597 14 3.17384C12.474 1.23597 10.136 0 7.7 0C3.388 0 0 3.67738 0 8.39237C0 14.145 4.76 18.8599 11.97 25.9858L14 28L16.03 25.9858C23.24 18.8599 28 14.145 28 8.39237C28 3.67738 24.612 0 20.3 0Z" fill="white"/>
</svg>
