<svg width="29" height="33" viewBox="0 0 29 33" fill="none" xmlns="http://www.w3.org/2000/svg">
<path opacity="0.92" fill-rule="evenodd" clip-rule="evenodd" d="M22.1151 14.0407C22.1151 15.4237 21.8699 16.7932 21.3936 18.071C20.9172 19.3487 20.2191 20.5097 19.3389 21.4877C18.4587 22.4656 17.4139 23.2414 16.2639 23.7706C15.1139 24.2999 13.8814 24.5723 12.6366 24.5723C11.3919 24.5723 10.1594 24.2999 9.00941 23.7706C7.85944 23.2414 6.81455 22.4656 5.93439 21.4877C5.05424 20.5097 4.35607 19.3487 3.87973 18.071C3.4034 16.7932 3.15823 15.4237 3.15823 14.0407C3.15823 11.2476 4.15685 8.56882 5.93439 6.59377C7.71194 4.61872 10.1228 3.50914 12.6366 3.50914C15.1505 3.50914 17.5614 4.61872 19.3389 6.59377C21.1165 8.56882 22.1151 11.2476 22.1151 14.0407ZM20.3879 25.134C17.8485 27.3245 14.6532 28.3574 11.4525 28.0223C8.25179 27.6873 5.28633 26.0095 3.15981 23.3305C1.03328 20.6515 -0.0944475 17.1728 0.00620093 13.6025C0.106849 10.0322 1.42831 6.63868 3.70156 4.11284C5.97481 1.58701 9.02896 0.118722 12.2422 0.00688992C15.4555 -0.104942 18.5864 1.14809 20.9975 3.5109C23.4085 5.8737 24.9185 9.16865 25.2201 12.725C25.5216 16.2813 24.592 19.8316 22.6206 22.6532L28.4972 29.1828C28.6524 29.3435 28.7769 29.5373 28.8632 29.7526C28.9496 29.9679 28.996 30.2003 28.9998 30.436C29.0035 30.6717 28.9645 30.9058 28.885 31.1243C28.8056 31.3429 28.6873 31.5414 28.5373 31.7081C28.3873 31.8748 28.2086 32.0062 28.0119 32.0945C27.8152 32.1828 27.6045 32.2261 27.3924 32.222C27.1803 32.2178 26.9711 32.1662 26.7773 32.0703C26.5835 31.9743 26.4091 31.836 26.2645 31.6636L20.3879 25.134Z" fill="white"/>
</svg>
